<svg xmlns="http://www.w3.org/2000/svg" width="170" height="36.379" viewBox="0 0 170 36.379">
  <defs>
    <style>
      .cls-1 {
        fill: #009ca6;
      }
    </style>
  </defs>
  <path id="Civica_Logo_Teal_RGB-01" class="cls-1" d="M46.824,4.626H52.4V40.552H46.824Zm110.267,0L142.866,40.6h5.98l10.284-26,10.238,26h5.98L161.169,4.626ZM95.978,40.6h5.572V4.626H95.978ZM84.471,4.626h0L74.278,30.4,64.085,4.626H57.923L72.149,40.6h4.032L90.406,4.626ZM34.683,27.1a12.341,12.341,0,0,1-11.462,8.064,11.992,11.992,0,0,1-8.653-3.67,12.685,12.685,0,0,1,0-17.759,11.992,11.992,0,0,1,8.653-3.67,12.416,12.416,0,0,1,11.507,8.2H40.8C38.443,10.244,31.6,4.354,23.267,4.4A17.573,17.573,0,0,0,10.582,9.791a18.266,18.266,0,0,0,0,25.6,17.573,17.573,0,0,0,12.685,5.391c8.29.045,15.086-5.753,17.532-13.682Zm101.705,0a12.341,12.341,0,0,1-11.462,8.064,11.992,11.992,0,0,1-8.653-3.67,12.685,12.685,0,0,1,0-17.759,11.992,11.992,0,0,1,8.653-3.67,12.416,12.416,0,0,1,11.507,8.2H142.5c-2.4-8.019-9.2-13.908-17.578-13.863a17.573,17.573,0,0,0-12.685,5.391,18.352,18.352,0,0,0,0,25.6,17.573,17.573,0,0,0,12.685,5.391c8.336.045,15.086-5.8,17.532-13.727Z" transform="translate(-5.349 -4.399)"/>
</svg>
